<?xml version="1.0" encoding="UTF-8" standalone="no"?>
<!DOCTYPE svg PUBLIC "-//W3C//DTD SVG 1.1//EN" "http://www.w3.org/Graphics/SVG/1.1/DTD/svg11.dtd">
<svg width="100%" height="100%" viewBox="0 0 255 100" version="1.1" xmlns="http://www.w3.org/2000/svg" xmlns:xlink="http://www.w3.org/1999/xlink" xml:space="preserve" xmlns:serif="http://www.serif.com/" style="fill-rule:evenodd;clip-rule:evenodd;stroke-linecap:round;stroke-linejoin:round;stroke-miterlimit:1.5;">
    <g transform="matrix(0.852269,0,0,1,-103.351,-119.798)">
        <path d="M417.617,148.187C417.617,135.89 405.903,125.907 391.475,125.907L151.012,125.907C136.584,125.907 124.87,135.89 124.87,148.187L124.87,192.746C124.87,205.043 136.584,215.026 151.012,215.026L391.475,215.026C405.903,215.026 417.617,205.043 417.617,192.746L417.617,148.187Z" style="fill:rgb(235,235,235);fill-opacity:0;stroke:black;stroke-width:1.08px;"/>
    </g>
    <g transform="matrix(0.852269,0,0,1.14615,-104.234,-150.822)">
        <path d="M411.399,154.663C411.399,145.369 401.252,137.824 388.753,137.824L160.988,137.824C148.489,137.824 138.342,145.369 138.342,154.663L138.342,188.342C138.342,197.636 148.489,205.181 160.988,205.181L388.753,205.181C401.252,205.181 411.399,197.636 411.399,188.342L411.399,154.663Z" style="fill:rgb(235,235,235);fill-opacity:0.01;stroke:black;stroke-width:0.99px;"/>
    </g>
</svg>
